<?xml version="1.0" encoding="UTF-8" standalone="no"?>
<!-- Created with Inkscape (http://www.inkscape.org/) -->

<svg
   width="210mm"
   height="297mm"
   viewBox="0 0 210 297"
   version="1.1"
   id="svg1"
   xml:space="preserve"
   xmlns="http://www.w3.org/2000/svg"
   xmlns:svg="http://www.w3.org/2000/svg"><defs
     id="defs1" /><g
     id="layer1"><g
       id="g1"
       transform="matrix(4.4248776,0,0,4.4248776,0.86910615,44.410875)"><g
         id="layer1-8"
         style="display:inline" /><g
         id="layer5" /><g
         id="layer4"
         style="display:inline;fill:#faf3f6;fill-opacity:1" /><g
         id="layer3"
         style="display:inline;fill:#faf6f3;fill-opacity:1"><g
           id="g73"
           style="fill:#faf6f3;fill-opacity:1"><path
             d="M 25.613214,46.427536 H 6.3645613 V 43.683713 L 17.130402,29.85987 H 7.4327673 V 24.979635 H 25.529434 v 3.267454 l -10.20032,13.300212 h 10.2841 z"
             id="text38"
             style="font-weight:bold;font-size:42.8958px;font-family:'Segoe UI';-inkscape-font-specification:'Segoe UI, Bold';letter-spacing:-1.11798px;fill:#faf6f3;fill-opacity:1;stroke-width:0.409922"
             transform="scale(1.0005172,0.99948307)"
             aria-label="z" /><path
             id="path38-3"
             style="display:inline;fill:#faf6f3;fill-opacity:1;fill-rule:evenodd;stroke:none;stroke-width:0;stroke-dasharray:none"
             d="m 21.969134,1.1116039 c -0.345005,-0.00753 -0.688081,0.095416 -0.985428,0.2705813 -0.297866,0.175478 -0.54884,0.4193607 -0.793461,0.6636553 -0.549436,0.5487221 -1.038615,1.107235 -1.468085,1.6435982 l -0.0037,0.00549 c -1.144461,1.4372915 -2.009259,2.7705198 -2.831961,3.8649238 -1.220817,1.6083327 -2.23659,2.9961405 -3.177501,4.3658655 -1.725211,2.513878 -2.599092,3.782719 -3.6894126,5.287304 -1.9042513,2.627767 2.0374586,5.485329 3.9417106,2.857557 l -0.0037,-0.0019 c 1.131671,-1.561649 2.038346,-2.878111 3.760714,-5.387858 0.882882,-1.285244 1.851075,-2.609085 3.045867,-4.18304 0.0021,-0.0029 0.0045,-0.0044 0.0073,-0.0073 0.702018,-0.9334634 1.360351,-1.9040789 2.040329,-2.8283061 0.161125,0.2459341 0.323497,0.4927407 0.495457,0.7696939 0.465154,0.7624187 0.899074,1.6529412 1.352905,2.5558962 0.291992,0.620349 0.595739,1.246844 0.883047,2.065925 0.671974,1.91563 0.668014,2.13315 1.021991,3.111683 0.341703,1.09313 0.812503,2.053364 1.228585,3.04404 0.01971,0.04685 0.04137,0.09157 0.06399,0.137118 -0.119858,-0.241754 0.137887,0.290824 0.155402,0.323601 0.06179,0.115609 0.155376,0.275154 0.285206,0.446094 0.130842,0.172258 0.305669,0.364595 0.535678,0.544818 0.210842,0.165206 0.430991,0.322737 0.683766,0.411357 0.252778,0.08863 0.525613,0.103424 0.793462,0.106038 0.269848,0.0026 0.51932,-0.03689 0.742269,-0.100554 0.21861,-0.06244 0.400017,-0.144037 0.54482,-0.223046 0.268192,-0.146333 0.457062,-0.310266 0.526536,-0.371135 0.02347,-0.02054 0.0043,-0.0022 0.01828,-0.01463 l 0.02377,-0.01646 c 0.432902,-0.328858 1.149836,-0.859467 1.747808,-1.570467 0.408715,-0.479322 0.788581,-0.964649 1.155455,-1.440662 0.870082,2.080131 1.759973,4.027914 2.405979,5.938161 l 0.0019,0.0073 c 0.499762,1.463528 0.905298,2.939291 1.213959,4.418884 0.143945,0.766463 0.2031,1.537245 0.305317,2.504705 0.07808,0.77642 0.08071,1.411765 -0.0128,1.965371 0,0.004 -0.0019,0.0069 -0.0019,0.01097 -0.132599,0.808985 -0.399408,1.641262 -0.733129,2.548582 -0.369453,0.966727 -0.924233,1.842287 -1.596064,2.594289 0.02848,0.02516 0.05746,0.04978 0.08593,0.07496 0.681283,0.610748 1.3592,1.224072 2.034844,1.841049 0.283442,0.260113 0.569437,0.517733 0.851966,0.778836 0.119251,0.110875 0.234479,0.226413 0.347367,0.343711 0.08564,0.08761 0.177901,0.168376 0.270581,0.248642 1.069448,-1.186389 1.96072,-2.586928 2.559553,-4.1611 0.0029,-0.0081 0.0063,-0.01745 0.0092,-0.02559 0.362347,-0.984126 0.763921,-2.169377 0.974459,-3.449911 0.193851,-1.151385 0.155653,-2.265235 0.05484,-3.263429 0,-0.0038 -0.0037,-0.009 -0.0037,-0.0128 -0.0842,-0.795752 -0.171952,-1.884145 -0.365651,-2.910576 -0.0029,-0.01448 -0.0063,-0.02763 -0.0092,-0.04205 C 42.112259,25.158069 41.650697,23.475614 41.08351,21.814678 40.119137,18.962994 39.259135,16.197791 37.891382,13.885551 37.5326,13.279007 37.366085,12.923496 37.055871,12.43209 36.745636,11.940679 36.412588,11.433387 36.010111,10.962176 35.583537,10.524718 35.236689,10.055871 34.697426,10.006 34.191403,9.959202 33.86218,10.207479 33.320753,10.662343 33.05977,10.8816 32.55176,11.484585 32.223802,11.861676 c -0.829433,0.971972 -1.148552,1.487831 -1.469915,1.906867 -0.167457,0.219012 -0.31869,0.416088 -0.475345,0.619776 -0.0536,-0.141559 -0.106108,-0.268844 -0.148088,-0.361994 -0.08238,-0.182794 -0.141102,-0.302081 -0.170028,-0.367478 -0.295085,-0.686387 -0.543511,-1.414675 -0.824541,-2.215841 -0.293236,-0.835964 -0.610878,-1.7182291 -1.027478,-2.5979454 -0.0081,-0.016417 -0.01567,-0.033119 -0.02377,-0.049362 -0.539711,-1.076638 -1.11355,-2.0662737 -1.627144,-2.90692 -0.003,-0.00482 -0.0061,-0.00981 -0.0092,-0.014626 C 25.961968,5.0904588 25.486865,4.3695034 24.978436,3.6821257 24.582961,3.1473142 24.162618,2.6259774 23.705973,2.1262836 23.472745,1.8710848 23.233155,1.6167778 22.943592,1.4278915 22.654555,1.2393368 22.315963,1.1198646 21.970963,1.1116039 Z M 30.78862,40.854137 c -2.81e-4,0.0026 0.0067,0.01833 0.0073,0.02011 0.0028,0.0051 0.0031,0.0048 0.0055,0.0092 -0.0028,-0.0085 -0.0059,-0.01723 -0.0092,-0.02559 -6.55e-4,-0.0016 -0.0035,-0.0053 -0.0037,-0.0037 z" /><path
             id="path38"
             style="display:inline;fill:#faf6f3;fill-opacity:1;fill-rule:evenodd;stroke:none;stroke-width:0;stroke-dasharray:none"
             d="m 22.708642,3.5671839 c 0.0036,-0.00405 0.0049,-0.00583 -0.01056,0.00527 -0.0069,0.005 -0.01261,0.011462 -0.01934,0.01671 0.009,-0.00439 0.01802,-0.00871 0.02639,-0.014075 -0.006,0.00236 -7.4e-5,-0.00387 0.0036,-0.00793 z M 39.109211,30.194453 c -0.210264,0 -0.420461,-2.3e-5 -0.630726,4.52e-4 -0.141309,4.5e-4 -0.28271,0.0011 -0.423998,0.0031 -0.02259,4.51e-4 -0.04516,0.0013 -0.06775,0.0018 0.004,0.03924 0.0072,0.07094 0.01149,0.110842 0.07805,0.77642 0.0806,1.411617 -0.01283,1.965223 0,0.004 -0.0022,0.0079 -0.0022,0.01187 -0.132618,0.808986 -0.399924,1.640694 -0.733642,2.548015 -0.548667,1.435637 -1.498945,2.679125 -2.648254,3.597924 l -0.007,0.0057 c -1.554748,1.252877 -3.490349,2.040555 -5.477701,2.533498 -0.813735,0.19659 -1.543101,0.343625 -2.235681,0.442047 -0.567837,0.06711 -1.243702,0.09684 -1.827357,0.12875 l -0.119429,0.03973 c 0.0028,0.247133 0.09409,0.484637 0.103915,0.731626 0.01574,0.287305 -0.141533,0.584447 -0.132683,0.872046 0.0079,0.270032 -0.03948,0.490745 -0.03746,0.760868 0.0016,0.239643 -0.09727,0.508916 -0.09689,0.748563 2.26e-4,0.249093 -0.208549,0.488251 -0.208549,0.737343 3.6e-5,0.180202 0.422301,0.390227 0.42231,0.570426 9e-4,0.03009 0.212388,0.06009 0.212388,0.09017 0.0029,-0.0013 0.0058,-0.0024 0.0088,-0.0036 0.017,-0.0061 -0.211625,0.103411 -0.193967,0.102916 0.03886,-0.0011 0.123984,-0.04947 0.15834,-0.03212 0.03637,0.02034 0.04569,0.02332 0.07829,0.04926 0.02738,0.0231 -0.02478,0.0232 -0.0026,0.05146 0.01842,0.02336 0.231081,0.0364 0.243669,0.06333 0.01147,0.02343 0.111614,0.05415 0.121395,0.07829 0.610989,-0.03632 1.253597,-0.08437 1.872816,-0.158344 0.01676,-0.0021 0.03345,-0.0043 0.05015,-0.0066 0.90075,-0.126652 1.800682,-0.310597 2.733574,-0.536171 0.004,-0.0011 0.0091,-0.0018 0.01319,-0.0031 2.399782,-0.594433 5.072581,-1.62011 7.368111,-3.469926 1.778795,-1.422025 3.278214,-3.368033 4.155553,-5.674428 0.0029,-0.0081 0.0059,-0.01648 0.0088,-0.02463 0.362362,-0.984127 0.762827,-2.16917 0.973362,-3.449695 0.168018,-0.998002 0.157794,-1.963642 0.08753,-2.854586 -0.428344,-0.0035 -0.856553,-0.008 -1.284764,-0.0198 -0.286132,-0.0085 -0.572221,-0.01705 -0.858557,-0.01232 -0.277125,4e-6 -0.554182,-8e-6 -0.831285,0 -0.263412,1.2e-5 -0.526981,-6.4e-5 -0.790392,0 z M 25.229336,46.371909 v 4.5e-4 c 0.0021,0.0011 0.0041,0.0018 0.0062,0.0026 -0.0021,-0.0011 -0.004,-0.0021 -0.0062,-0.0031 z" /></g></g></g></g></svg>
