<?xml version="1.0" encoding="UTF-8" standalone="no"?>
<!-- Created with Inkscape (http://www.inkscape.org/) -->

<svg
   width="79.628822mm"
   height="37.793411mm"
   viewBox="0 0 300.95933 142.84124"
   version="1.1"
   id="svg1"
   xml:space="preserve"
   xmlns="http://www.w3.org/2000/svg"
   xmlns:svg="http://www.w3.org/2000/svg"><defs
     id="defs1" /><g
     id="layer1"
     style="display:inline"
     transform="translate(-10.52059,-34.746271)"><g
       id="g23"
       style="fill:#fbfaf8;fill-opacity:1"><path
         id="path19"
         style="fill:#fbfaf8;fill-opacity:1;fill-rule:nonzero;stroke:none;stroke-width:0;stroke-dasharray:none"
         d="m 245.656,34.747612 c -1.08573,-0.0249 -2.16623,0.298532 -3.10199,0.849776 -0.93575,0.551257 -1.72287,1.316237 -2.49131,2.083679 -1.72605,1.723797 -3.25897,3.478636 -4.60816,5.163607 l -0.0125,0.01658 c -3.59515,4.515195 -6.31256,8.704838 -8.89705,12.142831 -3.83512,5.052515 -7.03014,9.412302 -9.98596,13.715267 -5.41969,7.897198 -8.1649,11.884828 -11.59013,16.611418 -5.98211,8.25503 6.40107,17.22813 12.38326,8.9731 l -0.008,0.003 c 3.55511,-4.90586 6.40185,-9.04352 11.81262,-16.92785 2.77351,-4.037527 5.81664,-8.194586 9.56998,-13.139072 0.007,-0.0092 0.0129,-0.01846 0.0221,-0.02766 2.20536,-2.93243 4.27382,-5.979856 6.40992,-8.88328 0.50654,0.773108 1.01251,1.550151 1.55308,2.420832 1.46104,2.394897 2.82339,5.189019 4.24891,8.025213 0.91729,1.948761 1.872,3.919757 2.77458,6.492848 2.11098,6.017839 2.10192,6.701849 3.2139,9.775899 1.07343,3.43399 2.55208,6.44678 3.85925,9.55895 0.0623,0.14715 0.12798,0.29228 0.19901,0.43525 -0.37651,-0.75945 0.43685,0.91266 0.49189,1.01559 0.19413,0.36321 0.48475,0.86137 0.8926,1.39833 0.41103,0.54114 0.95896,1.14589 1.68155,1.712 0.66233,0.51899 1.3574,1.0177 2.15145,1.29608 0.79412,0.27846 1.64852,0.32341 2.4899,0.33162 0.84774,0.008 1.63337,-0.11505 2.33375,-0.31504 0.6868,-0.19611 1.25708,-0.45514 1.71198,-0.70331 0.84251,-0.45971 1.43571,-0.97359 1.65396,-1.16482 0.0669,-0.0586 0.007,-0.008 0.0497,-0.0456 l 0.0829,-0.0512 c 1.35995,-1.0331 3.61256,-2.70203 5.49107,-4.93561 1.28389,-1.50563 2.47468,-3.02725 3.62713,-4.52248 2.73298,6.5338 5.52757,12.64924 7.55677,18.6495 l 0.007,0.0221 c 1.56998,4.59756 2.84397,9.2371 3.81361,13.88522 0.45221,2.40778 0.64188,4.82705 0.96313,7.86631 0.24521,2.4391 0.25235,4.43314 -0.0414,6.17228 0,0.0127 -0.007,0.0246 -0.007,0.0373 -0.41662,2.54139 -1.25637,5.15552 -2.30475,8.00586 -1.72358,4.50997 -4.70897,8.41499 -8.31955,11.30135 l -0.0221,0.018 c -4.88436,3.93586 -10.96643,6.41033 -17.20974,7.95889 l 0.0221,-0.007 c -2.56573,0.62037 -4.86192,1.08411 -7.04422,1.39419 -4.13961,0.4892 -8.5956,0.59699 -12.52283,0.7116 -5.69022,0.14574 -10.79523,0.15791 -15.07902,0.22661 -10.19339,0.16342 -9.94755,15.45388 0.24598,15.29046 4.17959,-0.0672 9.27894,-0.0777 15.25313,-0.23075 3.75582,-0.10959 9.00614,-0.22742 13.99576,-0.82353 0.0523,-0.007 0.1052,-0.0136 0.15755,-0.0207 2.82975,-0.39788 5.65682,-0.9757 8.58753,-1.68436 0.0127,0 0.0287,-0.007 0.0415,-0.01 7.53894,-1.8674 15.93575,-5.08952 23.14714,-10.90064 5.5882,-4.46723 10.29852,-10.58056 13.05477,-17.82598 0.009,-0.0255 0.0198,-0.0503 0.029,-0.076 1.13829,-3.09159 2.39502,-6.81572 3.05642,-10.83846 0.60898,-3.61702 0.48942,-7.11956 0.17276,-10.25537 v -0.0359 c -0.26452,-2.49979 -0.54106,-5.91714 -1.14961,-9.14166 -0.009,-0.0453 -0.0185,-0.0915 -0.0277,-0.13679 -1.10441,-5.31987 -2.55696,-10.60743 -4.33869,-15.8252 -3.02954,-8.95846 -5.73337,-17.64089 -10.03011,-24.9047 -1.12705,-1.905394 -1.64809,-3.021562 -2.62261,-4.565304 -0.97459,-1.543742 -2.01866,-3.140295 -3.28303,-4.620577 -1.34006,-1.374306 -2.43457,-2.844465 -4.12864,-3.001167 -1.58966,-0.147009 -2.62269,0.629892 -4.32355,2.058813 -0.81988,0.68878 -2.41441,2.582083 -3.44468,3.766649 -2.60557,3.053454 -3.60549,4.676226 -4.61503,5.992666 -0.52627,0.68831 -1.00409,1.30674 -1.49648,1.94688 -0.16852,-0.44512 -0.33364,-0.84432 -0.46565,-1.13718 -0.25879,-0.57424 -0.44103,-0.94832 -0.53193,-1.15376 -0.92699,-2.15626 -1.70795,-4.443036 -2.59078,-6.959885 -0.92118,-2.62615 -1.92039,-5.401235 -3.22919,-8.164773 -0.0255,-0.05164 -0.0491,-0.103749 -0.0746,-0.154756 -1.69549,-3.38221 -3.49901,-6.491136 -5.11243,-9.131994 -0.01,-0.01514 -0.0185,-0.03046 -0.0277,-0.0456 -1.52825,-2.462389 -3.01922,-4.725897 -4.61644,-6.885267 -1.24237,-1.68009 -2.56567,-3.318864 -4.00018,-4.88864 -0.73264,-0.801697 -1.48481,-1.602227 -2.39452,-2.195606 -0.90958,-0.59338 -1.97346,-0.964554 -3.05926,-0.989329 z M 162.61139,82.05464 v 34.17072 l -4.03059,2.44984 v 13.83963 l 4.03059,-2.44985 v 17.1503 h 17.52335 v -27.98185 l 4.23647,-2.57835 v -13.79679 l -4.23647,2.53551 V 82.05464 Z M 12.207713,85.57949 v 14.52773 h 25.543054 l -27.230176,34.08367 v 13.02439 H 60.003878 V 132.68754 H 33.34989 L 59.140286,98.51683 V 85.57949 Z M 274.33984,95.64002 c -0.22328,0.1716 -0.54206,0.39714 -1.04046,0.64251 z m -191.23998,6.48732 c -2.440542,0 -5.374033,0.32893 -8.801761,0.98796 -3.427726,0.65906 -6.279796,1.50532 -8.555805,2.53689 v 11.90517 c 5.237565,-2.80813 10.214657,-4.21158 14.931208,-4.21157 2.084062,-10e-6 3.743083,0.45788 4.977058,1.37483 1.234017,0.91692 1.851556,2.09212 1.851556,3.52486 l -10.448805,1.41767 c -10.17349,1.37544 -15.260062,6.3909 -15.260062,15.04452 0,4.12626 1.124262,7.42079 3.372857,9.88504 2.24858,2.46432 5.361709,3.69619 9.337877,3.69619 5.758571,0 10.036683,-2.5928 12.83372,-7.77926 h 0.164413 v 6.70564 h 16.000694 v -24.28429 c 0,-7.47881 -1.61831,-12.80899 -4.85408,-15.98963 -3.208312,-3.2093 -8.391777,-4.81402 -15.54887,-4.81402 z m 56.90885,0 c -2.82445,0 -5.34809,0.63084 -7.56929,1.89162 -2.22113,1.23216 -4.03038,2.95033 -5.42888,5.1567 h -0.16442 v -5.97332 h -17.522 v 64.25698 h 17.522 v -24.79968 h 0.16442 c 2.55024,3.75373 6.2936,5.62926 11.22953,5.62926 3.5648,0 6.7734,-1.01645 9.62523,-3.05091 2.8519,-2.03445 5.05839,-4.89941 6.62138,-8.59588 1.56305,-3.69641 2.34479,-7.95204 2.34479,-12.766 0,-6.93435 -1.45269,-12.2929 -4.35942,-16.0753 -2.87928,-3.78239 -7.03389,-5.67347 -12.46334,-5.67347 z m 70.21509,0 c -4.82627,0 -9.09032,0.9172 -12.7923,2.75107 -3.70191,1.83387 -6.55395,4.46919 -8.55577,7.90777 -2.00182,3.43852 -3.00259,7.49426 -3.00259,12.16493 0,7.27823 2.12506,12.99403 6.37546,17.14893 4.27778,4.12626 10.24291,6.18886 17.89363,6.18886 7.70555,0 13.69601,-2.11933 17.97386,-6.3602 4.30516,-4.24087 6.45831,-10.07286 6.45831,-17.49436 0,-4.2122 -0.98676,-8.02272 -2.96114,-11.43261 -1.94692,-3.40985 -4.75828,-6.07497 -8.43281,-7.99481 -3.64715,-1.91986 -7.96596,-2.87958 -12.95665,-2.87958 z m 59.82842,0 c -2.76962,0 -5.33394,0.70173 -7.69217,2.1058 -2.35831,1.37538 -4.23633,3.32457 -5.63483,5.84618 h -0.16441 v -6.87698 H 239.0388 v 44.01294 h 17.52201 v -25.1009 c 0,-1.91985 0.42525,-3.4962 1.27533,-4.72836 0.85008,-1.23215 2.02913,-1.84878 3.53729,-1.84878 1.75498,0 3.0168,0.60247 3.78461,1.80595 0.79525,1.17485 1.19249,3.12266 1.19249,5.84481 v 24.02728 h 17.522 v -26.86401 c 0,-12.14949 -4.6066,-18.22393 -13.82031,-18.22393 z m -137.28256,13.4099 c 2.13893,0 3.71514,0.7882 4.72977,2.36418 1.04202,1.57602 1.56278,3.75346 1.56278,6.53292 0,3.32391 -0.57552,5.90251 -1.72719,7.73643 -1.15174,1.80524 -2.78412,2.70823 -4.8956,2.70823 -1.97437,0 -3.45515,-0.83072 -4.44233,-2.49268 -0.98719,-1.66195 -1.47986,-3.8833 -1.47986,-6.6628 v -0.85946 c 0,-2.8941 0.57544,-5.17218 1.72718,-6.83414 1.15174,-1.66195 2.66054,-2.49268 4.52525,-2.49268 z m 77.45414,0 c 4.38744,0 6.58126,2.99396 6.58126,8.98277 0,6.90572 -2.16574,10.35899 -6.49841,10.35899 -4.44227,0 -6.66418,-3.30868 -6.66418,-9.92789 0,-6.27532 2.19383,-9.41387 6.58133,-9.41387 z M 87.502116,127.0569 v 1.67607 c 0,2.23504 -0.57686,4.06944 -1.7286,5.50214 -1.124255,1.43274 -2.605033,2.14862 -4.442298,2.14862 -1.343673,0 -2.385142,-0.387 -3.125523,-1.16067 -0.712968,-0.77368 -1.069477,-1.76176 -1.069477,-2.96524 0,-2.37833 1.480778,-3.82569 4.442334,-4.34146 z" /><path
         id="text23"
         style="font-size:25.3333px;line-height:0px;font-family:'Segoe UI';-inkscape-font-specification:'Segoe UI, Normal';letter-spacing:-0.7px;white-space:pre;inline-size:98.714;fill:#fbfaf8;fill-opacity:1;stroke-width:12.78"
         d="m 112.00391,74.027344 a 0.55906921,0.55906921 0 0 0 -0.5586,0.558593 v 6.394532 c -0.86367,-0.749947 -1.97765,-1.164063 -3.28906,-1.164063 -1.89036,0 -3.49489,0.712947 -4.64844,2.091797 -1.15326,1.378514 -1.71094,3.204292 -1.71093,5.392578 0,2.044717 0.50159,3.737071 1.55078,4.996094 a 0.55906921,0.55906921 0 0 0 0.004,0.0039 c 1.05533,1.246375 2.52405,1.892578 4.24805,1.892578 1.54006,0 2.84788,-0.516255 3.8457,-1.474609 v 0.619141 a 0.55906921,0.55906921 0 0 0 0.5586,0.558593 h 2.02734 a 0.55906921,0.55906921 0 0 0 0.55859,-0.558593 V 74.585937 a 0.55906921,0.55906921 0 0 0 -0.55859,-0.558593 z m 29.66601,0.234375 c -0.49291,0 -0.97092,0.198114 -1.32031,0.546875 -2.6e-4,2.57e-4 -0.002,-2.57e-4 -0.002,0 -0.35378,0.346296 -0.54883,0.833077 -0.54883,1.335937 0,0.506202 0.19748,0.996111 0.55469,1.341797 0.35062,0.339314 0.82651,0.527344 1.3164,0.527344 0.49881,0 0.98271,-0.195597 1.33399,-0.546875 0.35413,-0.346767 0.56054,-0.826522 0.56054,-1.322266 0,-0.504797 -0.20273,-0.99312 -0.56445,-1.33789 -0.35102,-0.349322 -0.83274,-0.544922 -1.33008,-0.544922 z m -77.119139,0.779297 a 0.55906921,0.55906921 0 0 0 -0.558594,0.558593 v 17.738282 a 0.55906921,0.55906921 0 0 0 0.558594,0.558593 h 2.078125 A 0.55906921,0.55906921 0 0 0 67.1875,93.337891 v -7.296875 h 5.847656 A 0.55906921,0.55906921 0 0 0 73.59375,85.482422 V 83.615234 A 0.55906921,0.55906921 0 0 0 73.035156,83.056641 H 67.1875 v -5.017579 h 6.367187 a 0.55906921,0.55906921 0 0 0 0.558594,-0.558593 v -1.88086 a 0.55906921,0.55906921 0 0 0 -0.558594,-0.558593 z m 31.267578,4.77539 c -1.435328,0 -2.674016,0.506595 -3.646484,1.439453 v -0.583984 a 0.55906921,0.55906921 0 0 0 -0.558594,-0.558594 h -2.029297 a 0.55906921,0.55906921 0 0 0 -0.558593,0.558594 v 12.666016 a 0.55906921,0.55906921 0 0 0 0.558593,0.558593 h 2.029297 a 0.55906921,0.55906921 0 0 0 0.558594,-0.558593 v -7.22461 c 0,-1.056825 0.286256,-1.861323 0.853516,-2.513672 0.575927,-0.661249 1.228131,-0.958984 2.101562,-0.958984 0.853841,0 1.370062,0.250932 1.755859,0.779297 0.385798,0.528365 0.628907,1.417151 0.628907,2.693359 v 7.22461 a 0.55906921,0.55906921 0 0 0 0.558593,0.558593 h 2.029298 a 0.55906921,0.55906921 0 0 0 0.55859,-0.558593 V 85.59375 c 0,-1.770447 -0.38353,-3.200386 -1.226559,-4.224609 l -0.002,-0.002 c -0.843108,-1.031128 -2.106248,-1.550781 -3.611328,-1.550781 z m 26.222661,0 c -1.71538,0 -3.26737,0.422718 -4.60547,1.273438 a 0.55906921,0.55906921 0 0 0 -0.25782,0.472656 v 2.078125 a 0.55906921,0.55906921 0 0 0 0.91993,0.427734 c 1.1417,-0.965464 2.37084,-1.427734 3.76953,-1.427734 0.75476,0 1.20118,0.203251 1.52148,0.599609 0.25957,0.3212 0.41356,0.880028 0.47461,1.591797 l -3.26172,0.457031 c -1.46953,0.204631 -2.64065,0.67796 -3.45117,1.478516 -0.8109,0.800927 -1.21094,1.911927 -1.21094,3.205078 0,1.224843 0.41903,2.292944 1.24024,3.066406 a 0.55906921,0.55906921 0 0 0 0.002,0.002 c 0.83706,0.779332 1.98924,1.152343 3.34961,1.152343 1.33235,0 2.4813,-0.472322 3.38672,-1.324218 v 0.46875 a 0.55906921,0.55906921 0 0 0 0.55859,0.558593 h 2.0293 a 0.55906921,0.55906921 0 0 0 0.55859,-0.558593 v -8.238282 c 0,-1.663093 -0.39568,-3.005109 -1.26757,-3.927734 -0.8719,-0.922625 -2.16882,-1.355469 -3.75586,-1.355469 z m 13.30273,0 c -2.11411,0 -3.89114,0.69704 -5.19336,2.080078 -1.30065,1.373043 -1.94727,3.211509 -1.94727,5.404297 0,1.982087 0.60259,3.673923 1.8086,4.960938 a 0.55906921,0.55906921 0 0 0 0.004,0.002 c 1.21736,1.28048 2.85653,1.929687 4.78321,1.929687 1.41779,0 2.68228,-0.315368 3.75195,-0.958984 a 0.55906921,0.55906921 0 0 0 0.26953,-0.478516 v -1.929687 a 0.55906921,0.55906921 0 0 0 -0.89453,-0.447266 c -0.892,0.672778 -1.8002,0.990235 -2.78125,0.990235 -1.18913,0 -2.04954,-0.362165 -2.72851,-1.105469 -0.66687,-0.738886 -1.01758,-1.749238 -1.01758,-3.134766 0,-1.406963 0.37178,-2.466538 1.0957,-3.277344 0.73683,-0.824365 1.61442,-1.210937 2.77539,-1.210937 0.95783,0 1.83914,0.28452 2.69727,0.886719 a 0.55906921,0.55906921 0 0 0 0.8789,-0.457032 v -2.078125 a 0.55906921,0.55906921 0 0 0 -0.31445,-0.501953 c -0.93602,-0.45438 -2.00564,-0.673828 -3.1875,-0.673828 z m 15.32227,0 c -1.71537,0 -3.26737,0.422718 -4.60547,1.273438 a 0.55906921,0.55906921 0 0 0 -0.25782,0.472656 v 2.078125 a 0.55906921,0.55906921 0 0 0 0.91993,0.427734 c 1.14147,-0.965277 2.37278,-1.427734 3.77148,-1.427734 0.75476,0 1.20118,0.20325 1.52148,0.599609 0.25958,0.321201 0.41356,0.880029 0.47461,1.591797 l -3.26171,0.457031 c -1.46953,0.204631 -2.64065,0.67796 -3.45118,1.478516 -0.81089,0.800927 -1.21093,1.911927 -1.21093,3.205078 0,1.224843 0.41902,2.292944 1.24023,3.066406 a 0.55906921,0.55906921 0 0 0 0.002,0.002 c 0.83707,0.779332 1.98924,1.152343 3.34961,1.152343 1.33236,0 2.4813,-0.472322 3.38672,-1.324218 v 0.46875 a 0.55906921,0.55906921 0 0 0 0.5586,0.558593 h 2.02929 a 0.55906921,0.55906921 0 0 0 0.5586,-0.558593 v -8.238282 c 0,-1.663208 -0.39715,-3.00519 -1.26954,-3.927734 -0.87238,-0.922544 -2.16881,-1.355469 -3.75585,-1.355469 z m -74.990239,0.296875 a 0.55906921,0.55906921 0 0 0 -0.558594,0.558594 v 7.570312 c 0,1.875952 0.389141,3.365021 1.261719,4.404297 0.872578,1.039276 2.204158,1.546875 3.824219,1.546875 1.353528,0 2.506004,-0.474356 3.400391,-1.324218 v 0.46875 a 0.55906921,0.55906921 0 0 0 0.558593,0.558593 h 2.027344 a 0.55906921,0.55906921 0 0 0 0.558594,-0.558593 V 80.671875 a 0.55906921,0.55906921 0 0 0 -0.558594,-0.558594 h -2.027344 a 0.55906921,0.55906921 0 0 0 -0.558593,0.558594 v 7.296875 c 0,1.077613 -0.280975,1.879869 -0.826172,2.501953 a 0.55906921,0.55906921 0 0 0 0,0.002 c -0.539981,0.61712 -1.164399,0.896485 -2.017578,0.896485 -0.900848,0 -1.455317,-0.25804 -1.857422,-0.783204 C 78.500239,90.060774 78.25,89.184497 78.25,87.919922 v -7.248047 a 0.55906921,0.55906921 0 0 0 -0.558594,-0.558594 z m 64.955079,0 a 0.55906921,0.55906921 0 0 0 -0.55859,0.558594 v 12.46875 c 0,1.417789 -0.2344,2.427598 -0.60743,3.023437 -0.37303,0.59584 -0.8307,0.845704 -1.60547,0.845704 -0.41723,0 -0.89435,-0.143897 -1.4414,-0.476563 a 0.55906921,0.55906921 0 0 0 -0.84961,0.478516 v 1.892578 a 0.55906921,0.55906921 0 0 0 0.31445,0.503906 c 0.61407,0.297733 1.26487,0.451172 1.92774,0.451172 1.69227,0 3.10168,-0.656702 4.0332,-1.917969 l 0.002,-0.0039 c 0.9388,-1.253755 1.3711,-2.979226 1.3711,-5.130859 V 80.671875 a 0.55906921,0.55906921 0 0 0 -0.5586,-0.558594 z m -32.21484,2.527344 c 0.91234,0 1.59055,0.285039 2.16796,0.890625 0.58387,0.612345 0.86133,1.312068 0.86133,2.210937 v 1.869141 c 0,1.138904 -0.31059,2.014194 -0.92773,2.724609 a 0.55906921,0.55906921 0 0 0 -0.002,0.0039 c -0.60426,0.703781 -1.32715,1.029297 -2.32227,1.029297 -1.00844,0 -1.72287,-0.333655 -2.31055,-1.054688 -6.3e-4,-7.75e-4 -0.001,-0.0012 -0.002,-0.002 -0.57638,-0.726924 -0.88867,-1.739159 -0.88867,-3.109375 0,-1.517524 0.33274,-2.636942 0.94336,-3.417969 0.6118,-0.782539 1.37974,-1.144531 2.48047,-1.144531 z m 15.50195,4.931641 v 0.61914 c 0,0.966952 -0.27701,1.69965 -0.83984,2.304688 -0.55367,0.595716 -1.19968,0.873047 -2.07618,0.873047 -0.63314,0 -1.06819,-0.15737 -1.39843,-0.44336 -0.3258,-0.297306 -0.46875,-0.617984 -0.46875,-1.101562 0,-0.743892 0.18191,-1.103437 0.47656,-1.306641 a 0.55906921,0.55906921 0 0 0 0.006,-0.0039 c 0.36551,-0.258381 0.9949,-0.484756 1.88281,-0.609375 l -0.002,0.002 z m 28.62695,0 v 0.61914 c 0,0.966273 -0.27859,1.699243 -0.8418,2.304688 -0.55367,0.595721 -1.19967,0.873047 -2.07617,0.873047 -0.63314,0 -1.06566,-0.156853 -1.39648,-0.44336 -0.3258,-0.297306 -0.46874,-0.617979 -0.46875,-1.101562 0,-0.744744 0.18055,-1.10384 0.47461,-1.306641 a 0.55906921,0.55906921 0 0 0 0.006,-0.0039 c 0.36492,-0.257965 0.99675,-0.484741 1.88476,-0.609375 l -0.002,0.002 z"
         transform="matrix(1.0436209,0,0,1.0387116,-3.5413951,-3.115719)" /></g></g></svg>
