<?xml version="1.0" encoding="UTF-8" standalone="no"?>
<!-- Created with Inkscape (http://www.inkscape.org/) -->

<svg
   width="85mm"
   height="55mm"
   viewBox="0 0 321.25985 207.87401"
   version="1.1"
   id="svg1"
   inkscape:version="1.4 (86a8ad7, 2024-10-11)"
   sodipodi:docname="logo kolorowe.svg"
   xmlns:inkscape="http://www.inkscape.org/namespaces/inkscape"
   xmlns:sodipodi="http://sodipodi.sourceforge.net/DTD/sodipodi-0.dtd"
   xmlns="http://www.w3.org/2000/svg"
   xmlns:svg="http://www.w3.org/2000/svg">
  <sodipodi:namedview
     id="namedview1"
     pagecolor="#505050"
     bordercolor="#eeeeee"
     borderopacity="1"
     inkscape:showpageshadow="0"
     inkscape:pageopacity="0"
     inkscape:pagecheckerboard="true"
     inkscape:deskcolor="#d1d1d1"
     inkscape:document-units="px"
     inkscape:zoom="1.4142136"
     inkscape:cx="218.49599"
     inkscape:cy="30.759144"
     inkscape:window-width="1920"
     inkscape:window-height="1009"
     inkscape:window-x="-8"
     inkscape:window-y="-8"
     inkscape:window-maximized="1"
     inkscape:current-layer="layer1"
     showgrid="false" />
  <defs
     id="defs1">
    <inkscape:path-effect
       effect="powerstroke"
       message=""
       id="path-effect3"
       is_visible="true"
       lpeversion="1.3"
       scale_width="1"
       interpolator_type="CentripetalCatmullRom"
       interpolator_beta="0.75"
       start_linecap_type="round"
       end_linecap_type="round"
       offset_points="15.120146,17.677669"
       linejoin_type="spiro"
       miter_limit="4"
       not_jump="true"
       sort_points="true" />
    <inkscape:path-effect
       effect="simplify"
       id="path-effect2"
       is_visible="true"
       lpeversion="1.3"
       threshold="0.012"
       steps="1"
       smooth_angles="0"
       helper_size="0"
       simplify_individual_paths="false"
       simplify_just_coalesce="false"
       step="1" />
    <inkscape:path-effect
       effect="fillet_chamfer"
       id="path-effect1"
       is_visible="true"
       lpeversion="1"
       nodesatellites_param="F,0,0,1,0,0,0,1 @ F,0,0,1,0,0,0,1 @ F,0,0,1,0,0,0,1 @ F,0,0,1,0,0,0,1 @ F,0,0,1,0,0,0,1 @ F,0,0,1,0,0,0,1 @ F,0,0,1,0,0,0,1 @ F,0,0,1,0,0,0,1 @ F,0,0,1,0,0,0,1 @ F,0,0,1,0,0,0,1 @ F,0,0,1,0,0,0,1 @ F,0,0,1,0,0,0,1 @ F,0,0,1,0,0,0,1 @ F,0,0,1,0,0,0,1 @ F,0,0,1,0,0,0,1 @ F,0,0,1,0,0,0,1 @ F,0,0,1,0,0,0,1 @ F,0,0,1,0,0,0,1 @ F,0,0,1,0,0,0,1 @ F,0,0,1,0,0,0,1 @ F,0,0,1,0,0,0,1 @ F,0,0,1,0,0,0,1 @ F,0,0,1,0,0,0,1 @ F,0,0,1,0,0,0,1 @ F,0,0,1,0,0,0,1 @ F,0,0,1,0,0,0,1 @ F,0,0,1,0,0,0,1 @ F,0,0,1,0,0,0,1 @ F,0,0,1,0,0,0,1 @ F,0,0,1,0,0,0,1 @ F,0,0,1,0,0,0,1 @ F,0,0,1,0,0,0,1 @ F,0,0,1,0,0,0,1 @ F,0,0,1,0,0,0,1 @ F,0,0,1,0,0,0,1 @ F,0,0,1,0,0,0,1 @ F,0,0,1,0,0,0,1 @ F,0,0,1,0,0,0,1 @ F,0,0,1,0,0,0,1 @ F,0,0,1,0,0,0,1 @ F,0,0,1,0,0,0,1 @ F,0,0,1,0,0,0,1 @ F,0,0,1,0,0,0,1 @ F,0,0,1,0,0,0,1 @ F,0,0,1,0,0,0,1 @ F,0,0,1,0,0,0,1 @ F,0,0,1,0,0,0,1 @ F,0,0,1,0,0,0,1 @ F,0,0,1,0,0,0,1 @ F,0,0,1,0,0,0,1 @ F,0,0,1,0,0,0,1 @ F,0,0,1,0,0,0,1 @ F,0,0,1,0,0,0,1 @ F,0,0,1,0,0,0,1 @ F,0,0,1,0,0,0,1 @ F,0,0,1,0,0,0,1 @ F,0,0,1,0,0,0,1 @ F,0,0,1,0,0,0,1 @ F,0,0,1,0,0,0,1 @ F,0,0,1,0,0,0,1 @ F,0,0,1,0,0,0,1 @ F,0,0,1,0,0,0,1 @ F,0,0,1,0,0,0,1 @ F,0,0,1,0,0,0,1 @ F,0,0,1,0,0,0,1 @ F,0,0,1,0,0,0,1 @ F,0,0,1,0,0,0,1 @ F,0,0,1,0,0,0,1 @ F,0,0,1,0,0,0,1 @ F,0,0,1,0,0,0,1 @ F,0,0,1,0,0,0,1 @ F,0,0,1,0,0,0,1 @ F,0,0,1,0,0,0,1 @ F,0,0,1,0,0,0,1 @ F,0,0,1,0,0,0,1 @ F,0,0,1,0,0,0,1 @ F,0,0,1,0,0,0,1 @ F,0,0,1,0,0,0,1 @ F,0,0,1,0,0,0,1 @ F,0,0,1,0,0,0,1 @ F,0,0,1,0,0,0,1 @ F,0,0,1,0,0,0,1 @ F,0,0,1,0,0,0,1 @ F,0,0,1,0,0,0,1 @ F,0,0,1,0,0,0,1 @ F,0,0,1,0,0,0,1 @ F,0,0,1,0,0,0,1 @ F,0,0,1,0,0,0,1 @ F,0,0,1,0,0,0,1 @ F,0,0,1,0,0,0,1 @ F,0,0,1,0,0,0,1 @ F,0,0,1,0,0,0,1 @ F,0,0,1,0,0.076105699,0,1 @ F,0,0,1,0,0,0,1 @ F,0,0,1,0,0,0,1 @ F,0,0,1,0,0,0,1 @ F,0,0,1,0,0,0,1 @ F,0,0,1,0,0,0,1 @ F,0,0,1,0,0,0,1 @ F,0,0,1,0,0,0,1 @ F,0,0,1,0,0,0,1 @ F,0,0,1,0,0,0,1 @ F,0,0,1,0,0,0,1 @ F,0,0,1,0,0,0,1 @ F,0,0,1,0,0,0,1 @ F,0,0,1,0,0,0,1 @ F,0,0,1,0,0,0,1 @ F,0,0,1,0,0,0,1 @ F,0,0,1,0,0,0,1 @ F,0,0,1,0,0,0,1 @ F,0,0,1,0,0,0,1 @ F,0,0,1,0,0,0,1 @ F,0,0,1,0,0,0,1 @ F,0,0,1,0,0,0,1 @ F,0,0,1,0,0,0,1 @ F,0,0,1,0,0,0,1 @ F,0,0,1,0,0,0,1 @ F,0,0,1,0,0,0,1 @ F,0,0,1,0,0,0,1 @ F,0,0,1,0,0,0,1 @ F,0,0,1,0,0,0,1 @ F,0,0,1,0,0,0,1 @ F,0,0,1,0,0,0,1 @ F,0,0,1,0,0,0,1 @ F,0,0,1,0,0,0,1 @ F,0,0,1,0,0,0,1 @ F,0,0,1,0,0,0,1 @ F,0,0,1,0,0,0,1 @ F,0,0,1,0,0,0,1 @ F,0,0,1,0,0,0,1 @ F,0,0,1,0,0,0,1 @ F,0,0,1,0,0,0,1 @ F,0,0,1,0,0,0,1 @ F,0,0,1,0,0,0,1 @ F,0,0,1,0,0,0,1"
       radius="0"
       unit="px"
       method="auto"
       mode="F"
       chamfer_steps="1"
       flexible="false"
       use_knot_distance="true"
       apply_no_radius="true"
       apply_with_radius="true"
       only_selected="false"
       hide_knots="false" />
    <inkscape:path-effect
       effect="simplify"
       id="path-effect61-1"
       is_visible="true"
       lpeversion="1.3"
       threshold="0.6"
       steps="1"
       smooth_angles="0"
       helper_size="0"
       simplify_individual_paths="false"
       simplify_just_coalesce="false"
       step="1" />
    <inkscape:path-effect
       effect="powerstroke"
       message=""
       id="path-effect62-5"
       is_visible="true"
       lpeversion="1.3"
       scale_width="1"
       interpolator_type="CentripetalCatmullRom"
       interpolator_beta="0.75"
       start_linecap_type="round"
       end_linecap_type="round"
       offset_points="4.4189197,2.4225656"
       linejoin_type="spiro"
       miter_limit="4"
       not_jump="true"
       sort_points="true" />
  </defs>
  <g
     inkscape:label="Warstwa 1"
     inkscape:groupmode="layer"
     id="layer1"
     style="display:inline">
    <g
       id="g18"
       transform="matrix(0.70247246,0,0,0.70247246,560.33212,-483.54021)">
      <path
         d="m -488.49838,814.93421 c 5.02518,-6.9345 9.05003,-12.78394 16.69821,-23.92847 3.92043,-5.70712 8.22224,-11.58323 13.52771,-18.57237 0.009,-0.0129 0.0178,-0.0259 0.0312,-0.0389 4.19084,-5.5725 8.03073,-11.44207 12.22549,-16.71032 1.48214,-1.85094 3.11733,-3.717 4.89542,-5.49278 l -15.6154,-0.35637 c 1.44336,1.57941 2.84305,3.30241 4.23305,5.18159 1.78616,2.41482 3.54976,5.07508 5.51692,8.24341 v 0 l -0.0179,-0.0326 c 2.07229,3.39199 4.00181,7.35606 6.02286,11.37718 1.29659,2.75466 2.64701,5.54078 3.9228,9.1779 2.98391,8.50636 2.97119,9.47304 4.54303,13.81822 1.51733,4.85404 3.60745,9.11167 5.45508,13.51075 0.0875,0.20803 0.18112,0.41331 0.28151,0.61545 -0.53223,-1.07352 0.61756,1.29099 0.69533,1.43653 0.27438,0.51336 0.68447,1.21773 1.26098,1.97678 0.581,0.76492 1.35631,1.61964 2.37766,2.41992 0.93624,0.73359 1.91902,1.43758 3.04147,1.8311 1.12246,0.39352 2.32964,0.45729 3.51902,0.4689 1.19826,0.0116 2.30809,-0.16333 3.29809,-0.44604 0.97074,-0.27723 1.77623,-0.64207 2.41923,-0.99291 1.1909,-0.64979 2.02992,-1.37648 2.33842,-1.64677 0.38233,-0.33482 0.48473,-0.4298 0.28553,-0.25907 -0.11466,0.0981 -0.79194,0.68588 -1.86205,1.21262 l 1.76493,-1.09066 c 1.92231,-1.4603 5.10604,-3.81987 7.76135,-6.97707 v 0 c 2.73375,-3.20599 5.2444,-6.52584 7.5691,-9.56633 l -0.009,0.0125 c 2.20575,-2.87626 3.92723,-5.38434 5.49831,-7.22738 v 0 c 0.55729,-0.57398 0.22841,-0.24292 0.0312,-0.0818 -0.24003,0.19461 -0.71962,0.55322 -1.42588,0.89337 -0.73634,0.35461 -1.69029,0.6748 -2.81832,0.78747 -0.44908,0.045 -0.90055,0.0617 -1.35172,0.0499 -1.62119,-0.0415 -3.10365,-0.50338 -4.32706,-1.19023 -1.1528,-0.64721 -1.90729,-1.39608 -2.33172,-1.88477 -0.42117,-0.48509 -0.66015,-0.87991 -0.7377,-1.01181 -0.0762,-0.12948 -0.1066,-0.19841 -0.009,-0.007 l -0.24047,-0.51314 c 0.48718,1.1148 1.06781,2.97574 2.0683,5.43443 v 0 c 4.76193,12.31694 10.22026,23.41375 13.8941,34.27713 l 0.009,0.0305 c 2.22488,6.51556 4.03063,13.09096 5.40253,19.67811 v 0 l -0.0178,-0.0933 c 0.64492,3.41735 0.91113,6.84665 1.36694,11.16031 v 0 c 0.34663,3.44769 0.35734,6.26729 -0.0579,8.72557 -0.004,0.0179 -0.005,0.0352 -0.009,0.0529 -0.58888,3.5923 -1.77581,7.28686 -3.25772,11.31581 -2.43636,6.37494 -6.65677,11.89483 -11.76036,15.97474 l -0.0312,0.0264 c -6.90403,5.5634 -15.49961,9.06154 -24.32458,11.25046 v 0 l 0.0311,-0.006 c -3.62658,0.87689 -6.87306,1.5308 -9.95776,1.96914 -5.85147,0.6915 -12.14898,0.8439 -17.70013,1.00592 -8.04319,0.20599 -15.25947,0.22487 -21.31472,0.32195 -14.4085,0.23099 -14.06199,21.84373 0.34664,21.61273 5.90793,-0.0948 13.11564,-0.11095 21.56031,-0.32729 5.30891,-0.15488 12.73129,-0.32112 19.78417,-1.16372 0.0744,-0.009 0.14856,-0.0188 0.22261,-0.0289 3.99987,-0.56239 7.99637,-1.37802 12.13896,-2.37968 0.0178,-0.005 0.0401,-0.009 0.0584,-0.0143 10.6564,-2.63958 22.52568,-7.19398 32.71915,-15.40812 7.89894,-6.31447 14.55709,-14.95636 18.45305,-25.1979 0.0134,-0.0361 0.0269,-0.0721 0.0402,-0.10831 1.60904,-4.37001 3.38611,-9.63267 4.32105,-15.31888 v 0 c 0.86074,-5.11272 0.69164,-10.06428 0.24404,-14.49676 -0.003,-0.017 -0.005,-0.0343 -0.005,-0.0513 -0.37386,-3.53354 -0.76471,-8.36419 -1.62484,-12.92206 -0.0134,-0.0643 -0.0267,-0.12857 -0.0402,-0.19268 -1.56113,-7.51973 -3.6132,-14.99352 -6.13171,-22.36891 -4.28235,-12.6629 -8.10527,-24.93645 -14.17877,-35.20396 -1.59317,-2.69335 -2.32815,-4.2707 -3.70568,-6.4528 -1.37757,-2.18211 -2.85394,-4.43826 -4.64121,-6.53067 -1.8942,-1.94253 -3.44046,-4.02099 -5.83501,-4.24244 -2.24706,-0.20781 -3.70862,0.88969 -6.11286,2.90951 -1.15891,0.97361 -3.41146,3.65074 -4.86776,5.32521 -3.68302,4.31604 -5.09674,6.6101 -6.5237,8.47082 -2.46575,3.22495 -4.59315,6.03248 -6.87817,8.71004 -0.0224,0.0249 -0.0445,0.0501 -0.0639,0.0756 -0.78856,0.94134 -1.884,1.84254 -3.90581,3.38547 v 0 c -0.61659,0.40973 -1.05625,0.77935 -1.28172,0.97241 -0.45484,0.38947 -0.60154,0.53423 -0.4722,0.42092 0.0531,-0.0467 0.63442,-0.56896 1.55347,-1.07043 0.50636,-0.27629 1.1719,-0.58088 1.99826,-0.81689 0.84493,-0.24131 1.80531,-0.39405 2.84843,-0.38388 1.18939,0.0116 2.39658,0.0755 3.51903,0.46889 1.12246,0.39353 2.10519,1.09749 3.04148,1.83108 0.68467,0.53653 1.17385,1.08602 1.50382,1.52046 0.32299,0.42527 0.5146,0.76887 0.59058,0.91107 v 0 c 0.14857,0.2778 0.0705,0.0944 -0.23155,-0.52232 v 0 l 0.11912,0.28628 c -1.479,-3.5214 -2.46222,-7.08272 -3.9614,-11.60845 v 0 c -0.37876,-1.26919 -0.83487,-2.33053 -1.15275,-3.03588 -0.36583,-0.8117 -0.62413,-1.3405 -0.75258,-1.6309 v 0 c -1.31032,-3.0479 -2.41333,-6.28063 -3.66124,-9.83821 -1.30212,-3.7121 -2.71554,-7.63608 -4.56549,-11.54246 -0.0356,-0.0729 -0.0701,-0.14544 -0.10615,-0.21757 -2.39658,-4.78081 -4.94508,-9.17643 -7.22569,-12.90932 -0.0135,-0.0214 -0.0267,-0.0432 -0.0402,-0.0646 -2.16019,-3.48062 -4.26695,-6.67904 -6.52463,-9.73134 -1.7561,-2.37483 -3.627,-4.69076 -5.65473,-6.90966 -1.03565,-1.13321 -2.09885,-2.26471 -3.38466,-3.10346 -1.28572,-0.83875 -2.78958,-1.36499 -4.32436,-1.40001 -1.53472,-0.0352 -3.06102,0.4221 -4.38371,1.20129 -1.32268,0.77921 -2.43643,1.86103 -3.52267,2.94582 -2.43977,2.43661 -4.60535,4.9182 -6.51241,7.29993 l -0.0179,0.0232 c -5.08181,6.38229 -8.92348,12.3039 -12.57669,17.1636 v 0 c -5.42104,7.1418 -9.93719,13.30475 -14.11532,19.38701 -7.66079,11.16287 -11.5401,16.7986 -16.38167,23.47971 -8.45583,11.6686 9.04713,24.35236 17.50297,12.68374 z"
         id="path18"
         style="fill:#ffa962;fill-opacity:1;fill-rule:nonzero;stroke:none;stroke-width:0;stroke-dasharray:none"
         sodipodi:nodetypes="cscssssssssscccccssscssccccssccssccscsccccssccsccsssccccsccccsscsccccccsssccccszsasccccssccsssscssssccssssssccccccccscccsscccc" />
      <path
         d="m -765.21691,850.28457 h 38.51328 v 20.08872 h -71.4992 v -18.00853 l 39.34536,-47.13122 h -36.90856 v -20.08872 h 67.81429 v 17.88966 z m 78.24639,20.08872 v -9.27172 h -0.23774 q -6.06228,10.75757 -18.54343,10.75757 -8.61795,0 -13.49154,-5.11133 -4.8736,-5.11133 -4.8736,-13.66984 0,-17.94909 22.05005,-20.80193 l 15.09626,-1.96132 q 0,-2.9717 -2.67454,-4.8736 -2.67453,-1.90189 -7.19152,-1.90189 -10.22266,0 -21.57457,5.82454 v -16.46324 q 4.93303,-2.13962 12.36229,-3.50661 7.42926,-1.36698 12.71889,-1.36698 15.51229,0 22.46608,6.65662 7.01322,6.59718 7.01322,22.10947 v 33.58026 z m -14.97739,-20.68306 q 0,2.49623 1.54528,4.10095 1.60472,1.60472 4.51699,1.60472 3.98209,0 6.41888,-2.9717 2.49624,-2.97171 2.49624,-7.60756 v -2.31793 l -8.55851,1.18868 q -6.41888,1.06981 -6.41888,6.00284 z m 115.15496,-11.58965 q 0,9.98493 -3.38774,17.65193 -3.38774,7.66699 -9.56889,11.88681 -6.18114,4.21982 -13.90757,4.21982 -10.69814,0 -16.22551,-7.78586 h -0.23773 v 34.29346 h -25.31892 v -88.85395 h 25.31892 v 8.26134 h 0.23773 q 3.03114,-4.57643 7.8453,-7.13209 4.81416,-2.6151 10.93587,-2.6151 11.76795,0 18.00853,7.8453 6.30001,7.8453 6.30001,22.22834 z m -25.67552,0.77265 q 0,-5.76511 -2.25849,-9.03398 -2.19907,-3.26888 -6.83492,-3.26888 -4.04152,0 -6.53775,3.44718 -2.49623,3.44718 -2.49623,9.45002 v 1.18868 q 0,5.76511 2.13962,9.21228 2.13963,3.44718 6.41888,3.44718 4.57643,0 7.07266,-3.74435 2.49623,-3.80378 2.49623,-10.69813 z m 59.34634,-7.19153 v 38.69159 h -25.31892 v -23.7142 l -5.82454,3.38774 v -19.13777 l 5.82454,-3.38774 v -47.2501 h 25.31892 v 32.27271 l 6.12171,-3.50661 v 19.07834 z m 78.66243,7.19153 q 0,15.39342 -9.33115,24.18967 -9.27171,8.79624 -25.97269,8.79624 -16.58211,0 -25.85383,-8.5585 -9.21228,-8.61795 -9.21228,-23.7142 0,-9.68776 4.33869,-16.81985 4.33869,-7.13209 12.36229,-10.93587 8.0236,-3.80378 18.484,-3.80378 10.817,0 18.72173,3.98208 7.96417,3.98209 12.18399,11.05474 4.27925,7.07266 4.27925,15.80947 z m -25.67552,0.11887 q 0,-12.42173 -9.50945,-12.42173 -9.50946,0 -9.50946,13.01607 0,13.72927 9.62833,13.72927 9.39058,0 9.39058,-14.32361 z m 71.58977,31.38119 v -33.22365 q 0,-5.64624 -1.72359,-8.08304 -1.66416,-2.49623 -5.46794,-2.49623 -3.26887,0 -5.11133,2.55567 -1.84245,2.55566 -1.84245,6.53775 v 34.7095 h -25.31892 v -60.8605 h 25.31892 v 9.50945 h 0.23773 q 3.03114,-5.2302 8.14247,-8.08303 5.11133,-2.91227 11.11417,-2.91227 19.96986,0 19.96986,25.20005 v 37.1463 z"
         id="text18"
         style="font-weight:900;font-size:121.721px;font-family:'Segoe UI';-inkscape-font-specification:'Segoe UI, Heavy';letter-spacing:-3px;fill:#363636;stroke-width:1.00425"
         transform="scale(0.97825438,1.022229)"
         aria-label="Zapłon" />
    </g>
  </g>
  <g
     inkscape:groupmode="layer"
     id="layer5"
     inkscape:label="Warstwa 3" />
  <g
     inkscape:groupmode="layer"
     id="layer4"
     inkscape:label="Warstwa 2"
     style="display:inline" />
  <g
     inkscape:groupmode="layer"
     id="layer3"
     inkscape:label="Layer 1"
     style="display:inline" />
</svg>
